Coordinates
version=1
nRows=16
nColumns=36
inDegrees=yes

Units are S.I. units (second, meters, Newtons, ...)
If the header above contains a line with 'inDegrees', this indicates whether rotational values are in degrees (yes) or radians (no).

endheader
time	pelvis_tilt	pelvis_list	pelvis_rotation	pelvis_tx	pelvis_ty	pelvis_tz	hip_flexion_r	hip_adduction_r	hip_rotation_r	knee_angle_r	knee_angle_r_beta	ankle_angle_r	subtalar_angle_r	mtp_angle_r	hip_flexion_l	hip_adduction_l	hip_rotation_l	knee_angle_l	knee_angle_l_beta	ankle_angle_l	subtalar_angle_l	mtp_angle_l	lumbar_extension	lumbar_bending	lumbar_rotation	arm_flex_r	arm_add_r	arm_rot_r	elbow_flex_r	pro_sup_r	arm_flex_l	arm_add_l	arm_rot_l	elbow_flex_l	pro_sup_l
      3.35000000	    -14.01951599	      2.14332141	      3.99324863	      0.12618716	      1.16608390	      0.01003634	     19.64357054	     -3.10633125	      0.05799209	     47.29485504	      0.82545094	     25.71474177	     -4.84056565	     -7.49999987	     23.16772483	     -2.34546778	    -11.35095114	     50.44443529	      0.88042149	      6.66040979	     -6.27329361	     -7.49999987	     -0.57170242	     -4.15637742	      0.05268659	      0.35591743	     -9.34805824	      2.00807885	    126.26393924	     95.80824678	     15.86743451	    -13.33202687	     14.15935241	    124.09352783	     89.16480674
      3.36666670	    -12.43276460	      2.25258850	      3.68216860	      0.15575287	      1.19512805	      0.00664133	     13.75284496	     -3.64216685	     -0.97196988	     41.58780013	      0.72584404	     14.14997987	     -4.96003196	     -7.49999987	     17.46174309	     -1.44573518	    -11.02660467	     44.56720952	      0.77784454	     -1.85503147	     -3.53775353	     -7.49999987	      0.25382330	     -3.72381516	      0.44139498	     -3.37036238	    -10.89401555	      1.08400096	    128.97157552	     95.34647748	     10.42272219	    -14.14653900	     13.47807145	    128.09214892	     88.70776387
      3.38333330	    -11.02390466	      1.82766805	      3.74681211	      0.18449065	      1.21712845	      0.00132961	      9.46791650	     -3.38888836	     -1.77174116	     37.54731509	      0.65532427	      4.13634177	     -5.14697869	     -7.49999987	     12.35270111	     -0.87381685	     -9.54348809	     38.86085023	      0.67824979	     -8.53722273	     -1.53997801	     -7.49999987	      1.01108203	     -2.47860954	     -2.76670342	     -3.98007253	    -13.39698226	      4.05470098	    130.19408212	     95.89536803	      1.96709467	    -15.10275254	      9.05966472	    134.00701686	     88.98479233
      3.40000000	     -9.41842313	      1.63069122	      3.67635608	      0.21063375	      1.25220793	     -0.00094500	      5.69614576	     -2.96598497	     -1.68377734	     33.78702568	      0.58969484	     -5.86348608	     -5.68093144	     -7.49999987	      8.66490890	     -0.31764557	     -7.35387162	     35.03527119	      0.61148084	    -15.31850256	     -0.11906580	     -7.49999987	      0.87361528	     -1.84755768	     -5.82416712	     -4.54522971	    -16.04390082	      7.10863405	    130.82796332	     93.36016096	     -6.04196991	    -15.07552877	      5.48696811	    137.92516392	     89.48899437
      3.41666670	     -7.81273174	      1.41060659	      3.84562783	      0.23415426	      1.26792435	     -0.00305217	      3.71956513	     -2.08415422	     -0.61518037	     33.59127287	      0.58627831	    -14.09475134	     -6.48015138	     -7.49999987	      6.32152636	     -0.04270949	     -5.10754490	     33.83671429	      0.59056207	    -20.64805768	     -0.29782079	     -7.49999987	      0.35204997	     -1.41314945	     -7.89753334	     -5.61979725	    -18.79866700	      9.28146321	    132.11816407	     91.98711140	    -12.15515437	    -15.00363692	      4.01758358	    140.88062290	     90.94460207
      3.43333330	     -5.89129274	      1.72682344	      4.07216104	      0.25746700	      1.28253273	     -0.00423232	      2.77125022	     -1.42786790	      1.25783139	     36.29126615	      0.63340208	    -18.00950122	     -6.36000668	     -7.49999987	      5.63895105	      0.66596563	     -2.93582062	     36.60714446	      0.63891520	    -24.46462923	     -2.34050756	     -7.49999987	     -0.75408403	     -1.70739994	     -7.86768779	     -8.42915133	    -21.17435377	      9.35698165	    133.77531206	     91.78900497	    -16.54094545	    -15.32970322	      4.92146904	    142.49667257	     91.03701990
      3.45000000	     -4.01777578	      2.04961715	      4.22374709	      0.27629631	      1.29797800	     -0.00137747	      3.03899795	     -0.14839390	      3.36461926	     40.94690461	      0.71465830	    -19.19124397	     -5.02752633	     -7.49999987	      6.28944259	      1.35566767	     -1.00545288	     41.28647980	      0.72058501	    -26.22735988	     -4.18375308	     -7.49999987	     -2.42902576	     -2.13216547	     -7.72604925	    -11.48729060	    -23.08582424	      9.61996953	    135.02731793	     91.04144387	    -20.44932667	    -16.43942084	      5.30436249	    143.97465663	     90.53594186
      3.46666670	     -2.49801287	      2.25257411	      4.09370222	      0.29468681	      1.30749030	      0.00221561	      4.35449948	      1.01994434	      4.44741477	     46.68707190	      0.81484312	    -18.20152195	     -4.35030198	     -7.49999987	      7.96588636	      2.01621146	      0.55673487	     47.00144834	      0.82033003	    -25.91867444	     -5.95207714	     -7.49999987	     -4.17572583	     -2.67184584	     -7.31401641	    -14.78924410	    -24.89646279	      9.31753453	    136.37239526	     90.07960909	    -24.04775367	    -18.37785014	      4.62395161	    145.74515659	     89.92662169
      3.48333330	     -1.60981982	      2.21136988	      3.78082392	      0.30998464	      1.31440499	      0.00241287	      6.71474599	      2.02110123	      4.63992021	     51.81366813	      0.90431911	    -16.31010760	     -5.47243095	     -7.49999987	      9.96053539	      2.18842361	      0.50080807	     51.05123500	      0.89101214	    -24.25095553	     -7.73522799	     -7.49999987	     -5.66345753	     -3.04548338	     -6.68577532	    -18.23565687	    -27.37367770	      7.61560261	    138.09093744	     89.63516490	    -27.78382621	    -20.78388118	      2.82986572	    147.50833565	     90.04380973
      3.50000000	     -0.86677799	      1.99499981	      3.84265933	      0.32644989	      1.32488377	      0.00114506	      8.19993266	      2.58706772	      3.84858917	     53.19529053	      0.92843297	    -13.80953616	     -7.05451904	     -7.49999987	     10.85048319	      2.02822272	      0.11738097	     51.51061912	      0.89902990	    -21.86047827	     -9.77823886	     -7.49999987	     -6.98620620	     -2.72336039	     -4.49904140	    -24.13752950	    -29.66638776	      2.57568829	    140.51389975	     89.42449263	    -28.27013539	    -26.16572629	      1.13710035	    148.29484991	     90.57388808
      3.51666670	     -0.49761133	      1.69153190	      3.99995027	      0.34588313	      1.32883454	     -0.00096632	      9.17398617	      2.77689852	      2.85446531	     52.36064755	      0.91386570	    -12.79245131	     -7.59291908	     -7.49999987	     11.54525101	      1.84333156	     -0.03701431	     50.37777709	      0.87925808	    -19.10741252	     -9.63807681	     -7.49999987	     -7.69359482	     -2.30514554	     -3.80345385	    -29.05049813	    -34.00936265	     -2.49348625	    142.64636235	     88.98565068	    -30.66646737	    -31.42818982	     -5.05057283	    149.07430044	     89.69148505
      3.53333330	     -0.09352903	      1.47755639	      3.83503765	      0.36372250	      1.32402137	     -0.00101976	     10.28060142	      2.82087045	      2.14618362	     50.46777269	      0.88082880	    -10.09668292	     -8.66532115	     -7.49999987	     11.85183186	      1.32995755	     -1.70103782	     48.88157781	      0.85314448	    -18.14643940	    -10.29933710	     -7.49999987	     -8.57650636	     -1.45422626	      2.15222683	    -43.17034369	    -34.80236261	    -17.96706534	    147.01121027	     86.66728440	    -24.69585727	    -42.25011889	     -7.68847696	    148.91613359	     81.47534156
      3.55000000	      0.12300319	      1.49424056	      3.90721729	      0.37900287	      1.31419522	     -0.00163813	     11.56977168	      2.53692183	      1.31320246	     48.57195651	      0.84774057	    -10.23417036	     -9.85201019	     -7.49999987	     12.80690158	      1.28718802	     -2.84267195	     47.60034454	      0.83078274	    -16.61262880	    -10.22381365	     -7.49999987	     -9.07885766	     -1.49401552	      3.48266242	    -51.73282766	    -39.82754118	    -31.45507616	    148.03460866	     85.48656859	    -25.41280773	    -52.13977148	    -19.69092946	    148.81578801	     79.32021371
      3.56666670	      0.10844563	      1.63764214	      3.32972729	      0.39831045	      1.30258962	     -0.00227477	     13.07108408	      2.07901361	      0.61977845	     46.43993392	      0.81052975	     -9.38218674	     -9.37742025	     -7.49999987	     13.52802095	      1.16643788	     -4.14424577	     45.05033581	      0.78627669	    -15.42248873	     -8.28519207	     -7.49999987	     -9.45557763	     -1.53736488	      5.23109993	    -62.85804648	    -44.15639728	    -49.66290818	    148.17325700	     82.93163975	    -26.97108294	    -61.87275017	    -31.69265594	    147.59895580	     75.93950576
      3.58333330	     -0.07421236	      1.80291404	      3.23952131	      0.41575527	      1.28830158	     -0.00200406	     14.97782316	      1.38269785	     -0.04485182	     44.44726464	      0.77575111	     -9.28406788	     -8.39302263	     -7.49999987	     14.73342193	      1.10961124	     -5.18440448	     42.37773692	      0.73963104	    -15.98034034	     -6.93889666	     -7.49999987	     -9.65266978	     -1.56550232	      6.30278989	    -74.84561476	    -46.41275945	    -68.56322959	    147.39826813	     72.32773985	    -32.59320964	    -70.91668180	    -46.45184336	    144.34000468	     61.39344961
      3.60000000	     -0.44110766	      2.10937857	      2.70737417	      0.43236314	      1.26890926	     -0.00223927	     16.77684697	      0.23478981	     -0.68880953	     41.35404791	      0.72176429	     -9.91764964	     -7.75798948	     -7.49999987	     15.94195600	      1.18401566	     -6.19445352	     39.03009724	      0.68120370	    -17.31771349	     -4.89396480	     -7.49999987	     -9.05970128	     -1.52260702	      8.45174144	    -86.00863090	    -46.82349795	    -84.84274422	    144.76198567	     70.70108783	    -32.37036330	    -80.11194000	    -52.84135032	    137.37797836	     61.20536851
